<svg width="1280" height="720" viewBox="0 0 1280 720" fill="none" xmlns="http://www.w3.org/2000/svg">
  <rect width="1280" height="720" fill="#050814"/>
  <path d="M0 0h1280v720H0z" fill="url(#bg)"/>
  <path d="M0 0h1280v720H0z" fill="url(#grid)" opacity=".25"/>
  <text x="80" y="76" fill="#67E8F9" font-family="Inter,Segoe UI,sans-serif" font-size="14" font-weight="700">STUDY SYSTEM</text>
  <text x="80" y="125" fill="#FFFFFF" font-family="Inter,Segoe UI,sans-serif" font-size="43" font-weight="850">Quiz Builder and Runner</text>
  <text x="80" y="162" fill="#CBD5E1" font-family="Inter,Segoe UI,sans-serif" font-size="19">Add questions, take quizzes, review wrong answers, and track attempts locally.</text>
  <rect x="80" y="213" width="690" height="398" rx="18" fill="#10192B" stroke="#263B5B"/>
  <text x="116" y="266" fill="#A7F3D0" font-family="Inter,Segoe UI,sans-serif" font-size="16" font-weight="750">Question 3 of 7</text>
  <text x="116" y="326" fill="#FFFFFF" font-family="Inter,Segoe UI,sans-serif" font-size="30" font-weight="850">What is Infrastructure as Code?</text>
  <g font-family="Inter,Segoe UI,sans-serif" font-size="17" font-weight="700">
    <rect x="116" y="365" width="594" height="56" rx="12" fill="#112438" stroke="#22D3EE"/>
    <text x="145" y="400" fill="#F8FAFC">Managing infrastructure with versioned configuration files</text>
    <rect x="116" y="438" width="594" height="56" rx="12" fill="#0B1220" stroke="#263B5B"/>
    <text x="145" y="473" fill="#CBD5E1">Manually creating servers from a dashboard</text>
    <rect x="116" y="511" width="594" height="56" rx="12" fill="#0B1220" stroke="#263B5B"/>
    <text x="145" y="546" fill="#CBD5E1">A CSS technique for layouts</text>
  </g>
  <rect x="815" y="213" width="385" height="398" rx="18" fill="#10192B" stroke="#263B5B"/>
  <text x="850" y="266" fill="#FFFFFF" font-family="Inter,Segoe UI,sans-serif" font-size="24" font-weight="800">Review Focus</text>
  <rect x="850" y="306" width="138" height="38" rx="19" fill="#164E63" stroke="#22D3EE"/>
  <text x="878" y="331" fill="#E0F2FE" font-family="Inter,Segoe UI,sans-serif" font-size="15" font-weight="700">Terraform</text>
  <rect x="1002" y="306" width="94" height="38" rx="19" fill="#312E81" stroke="#A78BFA"/>
  <text x="1028" y="331" fill="#EDE9FE" font-family="Inter,Segoe UI,sans-serif" font-size="15" font-weight="700">GitOps</text>
  <text x="850" y="396" fill="#67E8F9" font-family="Inter,Segoe UI,sans-serif" font-size="16" font-weight="750">Recent attempts</text>
  <rect x="850" y="425" width="294" height="54" rx="10" fill="#0B1220" stroke="#263B5B"/>
  <text x="874" y="459" fill="#CBD5E1" font-family="Inter,Segoe UI,sans-serif" font-size="15">All topics</text>
  <text x="1083" y="459" fill="#FFFFFF" font-family="Inter,Segoe UI,sans-serif" font-size="15" font-weight="800">6/7</text>
  <rect x="850" y="496" width="294" height="54" rx="10" fill="#0B1220" stroke="#263B5B"/>
  <text x="874" y="530" fill="#CBD5E1" font-family="Inter,Segoe UI,sans-serif" font-size="15">Kubernetes</text>
  <text x="1083" y="530" fill="#FFFFFF" font-family="Inter,Segoe UI,sans-serif" font-size="15" font-weight="800">4/5</text>
  <defs>
    <linearGradient id="bg" x1="0" y1="0" x2="1280" y2="720">
      <stop stop-color="#06111F"/>
      <stop offset=".55" stop-color="#081A2D"/>
      <stop offset="1" stop-color="#120B29"/>
    </linearGradient>
    <pattern id="grid" width="44" height="44" patternUnits="userSpaceOnUse">
      <path d="M44 0H0v44" stroke="#94A3B8" stroke-opacity=".16"/>
    </pattern>
  </defs>
</svg>
